<svg xmlns="http://www.w3.org/2000/svg" width="9295.7744" height="10022.535" viewBox="0 0 9295.7744 10022.535"><path d="M2732.958 10017.479c-11.155-2.484-24.845-6.746-30.423-9.47-5.577-2.724-20.789-10.04-33.803-16.256-46.1-22.024-88.823-73.528-106.25-128.091-17.028-53.312-17.12-55.577-17.12-419.155 0-362.937.119-365.878 16.892-415.862 4.04-12.037 12.56-31.837 18.934-44.002 14.954-28.537 57.18-71.395 81.582-82.804 45.135-21.1 54.264-24.975 68.497-29.073 21.332-6.142 137.38-6.148 162.254 0 24.48 6.041 85.539 35.809 100.63 49.06 24.844 21.813 54.151 62.396 64.44 89.232 23.36 60.924 22.538 44.916 22.517 438.528l-.017 354.93-9.23 33.535c-9.34 33.942-24.328 69.883-34.068 81.696-2.928 3.552-12.392 15.151-21.03 25.776-24.843 30.559-77.007 60.841-123.81 71.875-27.661 6.521-130.864 6.579-159.994.09zm121.719-166.882c20.872-9.482 33.65-26.425 40.186-53.284 5.128-21.072 5.557-54.605 4.62-361.257-1.094-357.61-.72-349.364-16.988-373.919-21.905-33.061-94.806-39.949-126.675-11.967-12.521 10.993-24.553 34.485-24.553 47.939 0 4.384-1.52 8.91-3.38 10.06-2.217 1.37-3.38 117.715-3.38 338.028 0 220.313 1.163 336.658 3.38 338.028 1.86 1.15 3.38 5.504 3.38 9.677 0 12.036 16.532 41.994 27.474 49.785 14.292 10.177 24.748 12.605 55.343 12.85 19.317.155 30.914-1.543 40.593-5.94zm2707.576 167.682c-9.295-1.902-17.832-4.894-18.97-6.65-1.137-1.756-3.074-2.967-4.304-2.691-1.23.277-10.663-2.651-20.961-6.504-22.204-8.307-49.598-25.33-69.385-43.114-17.87-16.062-44.285-56.05-53.768-81.395-3.962-10.589-8.359-20.791-9.771-22.673-4.026-5.362-10.125-37.586-13.764-72.717-4.363-42.123-4.397-633.476-.04-676.056 3.399-33.214 9.232-63.407 13.387-69.296 1.312-1.86 5.91-12.507 10.217-23.662 12.477-32.31 41.627-73.867 63.585-90.648 23.984-18.331 45.641-30.726 63.21-36.178 7.436-2.308 15.042-5.32 16.9-6.693 1.86-1.374 11.747-4.598 21.973-7.165 38.596-9.69 182.535-3.967 182.535 7.258 0 1.404 4.183 3.595 9.296 4.87 15.486 3.86 31.73 12.304 57.529 29.907 27.54 18.79 49.655 45.508 66.27 80.057 5.812 12.085 11.606 22.76 12.875 23.721 5.258 3.986 16.305 58.466 19.523 96.28 4.436 52.138 4.537 605.036.121 658.342-4.523 54.588-11.788 83.56-29.429 117.357-27.614 52.904-56.517 83.121-98.572 103.054-10.461 4.958-23.338 11.203-28.615 13.877-5.277 2.675-10.982 4.006-12.676 2.959-1.695-1.047-3.081-.556-3.081 1.091 0 9.721-134.058 14.856-174.085 6.669zm128.543-173.239c22.666-14.024 31.944-32.884 35.983-73.149 1.741-17.36 2.672-172.04 2.111-350.768l-1.003-319.715-7.824-19.37c-4.918-12.176-12.38-23.126-20.092-29.483-42.287-34.856-114.415-23.122-137.266 22.332-11.705 23.28-12.555 51.691-11.566 386.521l.973 329.578 7.555 18.591c4.683 11.524 12.091 22.195 19.488 28.072 20.65 16.407 31.076 19.386 64.502 18.435 27.42-.78 32.456-1.96 47.139-11.044zm-3780.937-398.839v-563.367l168.17 1.444c160.046 1.375 169.556 1.806 196.9 8.919 64.418 16.756 100.72 42.775 130.731 93.7 27.498 46.659 33.057 76.715 33.06 178.737 0 83.447-3.581 113.309-17.641 146.966-13.507 32.33-54.236 77.675-79.69 88.718l-16.357 7.097 15.298 5.807c23.964 9.097 37.03 18.49 59.585 42.836 25.36 27.373 35.21 46.055 46.687 88.556 8.58 31.771 8.754 34.625 8.804 143.963.049 109.675-.098 112.094-8.744 143.926-14.568 53.633-29.37 77.884-72.425 118.659-22.485 21.294-55.173 36.197-104.378 47.589-28.08 6.501-43.11 7.15-195.211 8.431l-164.789 1.387zm323.16 389.63c18.931-10.16 30.661-27.142 36.51-52.86 6.391-28.098 7.67-162.112 1.86-195.026-11.617-65.826-35.122-81.283-129.136-84.922l-53.239-2.061v343.124l66.76-1.315c54.01-1.063 68.763-2.389 77.245-6.94zm-40.648-501.071c9.183-2.727 23.207-9.747 31.165-15.599 29.3-21.547 35.874-49.307 33.667-142.163-2.08-87.487-7.97-103.267-45.395-121.603-14.608-7.157-21.887-8.123-69.555-9.231l-53.239-1.239v294.793h43.33c28.239 0 49.146-1.727 60.027-4.958zm1003.685 111.49v-562.87h147.131c173.63 0 202.52 2.622 256.813 23.306 22.762 8.672 30.845 14.007 55.513 36.642 23.625 21.678 40.231 48.57 50.651 82.024 13.97 44.854 16.417 72.517 14.798 167.324-1.306 76.515-2.442 91.318-8.778 114.396-7.488 27.272-22.11 59.193-35.268 76.99-8.766 11.857-37.568 34.685-54.931 43.537-11.227 5.724-11.607 6.387-4.88 8.522 4.011 1.273 18.545 10.025 32.296 19.45 35.674 24.447 51.418 51.57 66.178 114.006 6.19 26.182 6.92 43.29 8.223 192.676.787 90.17 2.784 169.268 4.439 175.775 1.654 6.507 5.565 23.24 8.69 37.183 3.124 13.944 6.424 27.254 7.333 29.578 1.297 3.317-18.287 4.225-91.177 4.225h-92.829l-6.226-22.817c-5.545-20.32-6.422-41.862-8.016-196.901-1.261-122.621-2.946-176.084-5.7-180.845-2.15-3.719-5.719-13.606-7.931-21.972-6.173-23.338-15.066-35.112-34.554-45.747-16.988-9.27-20.271-9.797-69.424-11.137l-51.594-1.406.135 239.568.135 239.567-90.514.898-90.513.897v-562.87zm286.032-89.353c6.725-2.05 17.337-7.17 23.58-11.379 12.65-8.524 29.961-39.5 30.05-53.77.034-5.002 1.578-10.036 3.437-11.185 2.09-1.292 3.38-30.954 3.38-77.746 0-46.792-1.29-76.455-3.38-77.747-1.86-1.149-3.395-6.182-3.414-11.185-.04-11.306-13.685-40.924-22.428-48.686-15.318-13.598-31.902-17.283-84.862-18.856l-51.55-1.531v319.435l46.48-1.811c25.563-.996 51.98-3.488 58.707-5.539zm357.912 89.3V8883.38l114.084.034 114.085.034 18.246 74.172c10.035 40.794 19.346 75.392 20.69 76.883 1.344 1.492 7.333 24.008 13.31 50.036 19.314 84.118 44.399 182.255 49.38 193.187 2.669 5.858 4.853 12.361 4.853 14.45 0 9.495 54.154 227.562 57.568 231.813 1.498 1.867 3.366 8.712 4.15 15.211.784 6.5 1.668-138.393 1.966-321.985l.541-333.803h158.834l.865 562.817.864 562.817h-185.98l-21.468-87.042c-11.808-47.873-22.748-88.631-24.312-90.573-1.564-1.942-5.893-17.153-9.62-33.803-9.85-44-49.652-200.063-55.569-217.878-2.778-8.366-16.72-63.118-30.982-121.67-14.261-58.553-26.93-107.99-28.154-109.86-1.223-1.87-10.039-34.582-19.589-72.695l-17.365-69.296-.381 401.409-.382 401.408H3840v-562.817zm1104.225 560.563c-1.24-1.239-2.253-218.07-2.253-481.847v-479.594l-89.58 1.002-89.581 1.003V8883.38h547.726l-.905 81.44-.906 81.441-92.135-.459-92.136-.46.868 481.836.868 481.836h-89.859c-49.423 0-90.873-1.014-92.113-2.254zm1373.521-560.58v-563.342l169.86 1.445c145.19 1.236 173.05 2.275 191.83 7.15 25.74 6.68 52.709 16.425 70.297 25.399 17.543 8.95 60.514 52.994 70.235 71.987 26.224 51.241 38.02 152.01 28.329 242.018-7.72 71.693-22.891 107.943-59.888 143.086-13.839 13.146-31.47 26.767-39.18 30.268-7.79 3.536-11.224 6.397-7.73 6.439 7.778.09 46.106 20.215 46.106 24.207 0 1.6 1.547 2.91 3.437 2.91 6.415 0 33.029 30.842 43.243 50.114 26.005 49.063 35.502 102.036 35.86 200.026.484 132.137-19.872 202.59-73.177 253.273-28.853 27.433-35.493 31.771-67.83 44.315-50.712 19.672-65.793 21.055-246.603 22.62l-164.789 1.427zm326.868 389.55c12.932-7.014 24.687-21.989 34.637-44.123 7.052-15.687 7.281-19.873 6.287-114.93-.692-66.24-2.305-100.87-4.91-105.41-2.133-3.718-6.59-13.32-9.904-21.338-7.065-17.09-19.877-28.851-37.68-34.586-7.02-2.261-14.543-5.52-16.718-7.242-2.176-1.721-28.388-4.038-58.248-5.149l-54.293-2.02-.907 171.519-.906 171.517 65.915-1.187c54.589-.982 67.773-2.194 76.727-7.05zm-38.178-501.736c27.129-7.612 45.375-25.501 54.538-53.471 9.412-28.73 9.733-148.421.478-178.607-13.584-44.306-40.353-57.205-115.256-55.541l-42.69.949-.767 146.197-.767 146.197h42.031c29.21 0 48.255-1.746 62.433-5.724zm360.324 112.203V8883.38h486.76v163.944l-152.113-.977-152.115-.976v294.347h240v162.254h-240v341.408h304.226v165.634h-486.76zm559.174 555.211c.856-4.183 3.103-17.493 4.993-29.577 1.89-12.085 5.645-35.662 8.344-52.395 2.7-16.732 6.614-41.83 8.7-55.774 2.086-13.944 8.92-58.817 15.186-99.718 6.266-40.902 12.43-81.815 13.695-90.92 1.266-9.104 3.59-18.991 5.162-21.972 1.573-2.98 6.889-32.038 11.813-64.573 4.925-32.535 10.293-67.521 11.93-77.747 10.883-67.978 13.991-88.077 20.381-131.83 7.131-48.83 11.936-76.908 21.4-125.071 2.74-13.944 8.893-50.45 13.674-81.127 4.781-30.676 10.173-64.901 11.981-76.056 1.809-11.155 8.677-56.028 15.263-99.719 6.586-43.69 13.096-86.281 14.467-94.647l2.492-15.212 122.099-.886 122.098-.887 2.05 7.647c1.126 4.206 2.069 11.74 2.094 16.744.034 5.003 1.39 9.926 3.032 10.941 1.641 1.015 4.002 10.611 5.245 21.326 1.242 10.715 3.704 27.848 5.47 38.073 1.766 10.225 13.175 83.24 25.354 162.254 12.18 79.014 23.69 149.746 25.579 157.183 4.235 16.671 8.631 43.402 28.352 172.394 28.58 186.933 32.8 212.932 35.41 218.158 1.43 2.86 3.502 11.226 4.605 18.592 8.918 59.547 27.677 181.747 34.486 224.658 4.573 28.817 9.207 58.124 10.298 65.127l1.984 12.731-90.704-.9-90.705-.901-3.973-23.662c-3.383-20.147-7.727-51.53-24.331-175.775l-2.259-16.901-98.188-.895-98.188-.895-7.734 60.05c-4.253 33.027-8.839 61.57-10.19 63.43-1.352 1.859-5.272 24.296-8.711 49.859l-6.253 46.479h-167.957zm372.04-382.817c-1.126-7.436-3.346-17.324-4.932-21.971-1.586-4.648-4.604-22.902-6.707-40.564-2.103-17.662-5.313-42.76-7.134-55.774-3.863-27.617-35.015-260.419-40.482-302.536-2.052-15.802-5.008-31.166-6.571-34.142-1.563-2.975-4.632-20.468-6.821-38.873-3.974-33.415-6.736-44.5-6.736-27.04 0 5.081-4.613 43.743-10.252 85.915-5.639 42.171-14.817 112.422-20.395 156.112-13.238 103.67-12.862 101.047-20.111 140.282-3.436 18.591-8.04 48.253-10.231 65.915-2.192 17.662-5.827 44.282-8.079 59.155l-4.093 27.042H7900.023zm397.237-91.415V9045.23l-91.27 1.047-91.27 1.047V8883.38h547.605v163.944l-89.569-1.003-89.569-1.002-.856 481.002-.857 481.003-92.113.899-92.112.899zm-4755.76-1893.655-530.971-533.24-.015-701.404-.014-701.404 534.084 534.076 534.084 534.076 493.523-493.514 493.522-493.513-1078.311-1078.315c-593.07-593.074-1078.31-1079.838-1078.31-1081.7 0-4.412 693.612-698.02 698.024-698.02 1.851 0 108.33 104.957 236.62 233.237l233.256 233.237 499.43-499.438 499.43-499.439-493.523-493.513-493.522-493.514-1343.66 1343.656L1399.44 4088.445l495.21 495.219 495.211 495.219-.017 701.385-.017 701.385-1194.912-1194.91C537.71 4629.544 0 4090.314 0 4088.452 0 4084.081 4083.979.025 4088.452-.077c1.858-.043 382.141 379.717 845.073 843.91l841.694 843.99 841.447-843.912C7079.463 379.76 7460.578 0 7463.59 0c4.85 0 1803.39 1799.822 1803.493 1804.778.034 1.09 4.785 8.839 10.584 17.219l10.543 15.236 2.532 579.25 2.531 579.25-550.58 550.59-550.58 550.592 532.394 531.845c292.817 292.515 540.372 538.617 550.121 546.894l17.728 15.048.169 577.888.169 577.889-61.841 58.62c-67.684 64.158-1685.79 1680.28-1731.67 1729.549l-28.332 30.422-524.157-523.94-524.159-523.939V5714.374l523.103 523.095 523.103 523.095 496.05-496.06 496.052-496.06-1054.647-1054.642C6826.14 4133.748 6351.549 3657.634 6351.549 3655.77c0-4.415 693.61-698.025 698.025-698.025 1.85 0 101.863 98.49 222.251 218.868l218.887 218.868 491.828-491.828 491.829-491.829-505.355-505.346-505.355-505.346L6120 2744.789 4776.342 4088.445l499.943 500.284 499.943 500.285 1.946 687.971 1.946 687.971-850.907 850.902c-468 467.997-852.68 850.902-854.848 850.902-2.167 0-242.878-239.957-534.912-533.239z" style="fill:#fefefe;stroke-width:3.38028"/></svg>